# xmcd CD database file
#
# Track frame offsets:
#	182
#	16292
#	30408
#	45336
#	61638
#	74144
#	90030
#	105522
#	118571
#	132953
#	146460
#	159964
#	174388
#	187871
#	202456
#	219181
#	234035
#	249518
#
# Disc length: 3537 seconds
#
# Revision: 0
# Processed by: cddbd v1.5.1PL0 Copyright (c) Steve Scherf et al.
# Submitted via: CDex 1.51
#
DISCID=dd0dcf12
DTITLE=Bessie Smith - The Quintessence CD1 (1923-25)
DYEAR=1997
DGENRE=Blues
TTITLE0=Down Hearted Blues
TTITLE1=Gulf Coast Blues
TTITLE2=Aggravatin' Papa
TTITLE3=Beale Street Mama (Papa)
TTITLE4=Graveyard Dream Blues
TTITLE5=Cemetary Blues
TTITLE6=Any Woman's Blues
TTITLE7=Boweavil Blues
TTITLE8=Weeping Willow Blues
TTITLE9=Reckless Blues
TTITLE10=Sobbin' Hearted Blues
TTITLE11=Cake Walkin' Babies From Home
TTITLE12=The Yellow Dog Blues
TTITLE13=Soft Pedal Blues
TTITLE14=Nashville Woman's Blues
TTITLE15=Careless Love Blues
TTITLE16=I Ain't Gonna Play Second Fiddle
TTITLE17=AtThe Christmas Ball
EXTD=YEAR: 1997
EXTT0=
EXTT1=
EXTT2=
EXTT3=
EXTT4=
EXTT5=
EXTT6=
EXTT7=
EXTT8=
EXTT9=
EXTT10=
EXTT11=
EXTT12=
EXTT13=
EXTT14=
EXTT15=
EXTT16=
EXTT17=
PLAYORDER=
